<?xml version="1.0" encoding="UTF-8" standalone="no"?>
<!-- Created with wpg2svg/libwpg 0.1.0 -->

<svg
   xmlns:dc="http://purl.org/dc/elements/1.1/"
   xmlns:cc="http://creativecommons.org/ns#"
   xmlns:rdf="http://www.w3.org/1999/02/22-rdf-syntax-ns#"
   xmlns:svg="http://www.w3.org/2000/svg"
   xmlns="http://www.w3.org/2000/svg"
   xmlns:xlink="http://www.w3.org/1999/xlink"
   xmlns:sodipodi="http://sodipodi.sourceforge.net/DTD/sodipodi-0.dtd"
   xmlns:inkscape="http://www.inkscape.org/namespaces/inkscape"
   version="1.1"
   width="301.464"
   height="301.464"
   id="svg2403"
   sodipodi:version="0.32"
   inkscape:version="0.48.2 r9819"
   sodipodi:docname="logo.svg"
   inkscape:output_extension="org.inkscape.output.svg.inkscape"
   inkscape:export-xdpi="90"
   inkscape:export-ydpi="90">
  <metadata
     id="metadata2426">
    <rdf:RDF>
      <cc:Work
         rdf:about="">
        <dc:format>image/svg+xml</dc:format>
        <dc:type
           rdf:resource="http://purl.org/dc/dcmitype/StillImage" />
      </cc:Work>
    </rdf:RDF>
  </metadata>
  <defs
     id="defs2424">
    <linearGradient
       id="linearGradient3777">
      <stop
         style="stop-color:#2a18df;stop-opacity:1;"
         offset="0"
         id="stop3779" />
      <stop
         style="stop-color:#6091de;stop-opacity:1;"
         offset="1"
         id="stop3781" />
    </linearGradient>
    <inkscape:perspective
       sodipodi:type="inkscape:persp3d"
       inkscape:vp_x="0 : 150.73199 : 1"
       inkscape:vp_y="0 : 1000 : 0"
       inkscape:vp_z="301.46399 : 150.73199 : 1"
       inkscape:persp3d-origin="150.73199 : 100.488 : 1"
       id="perspective2428" />
    <clipPath
       clipPathUnits="userSpaceOnUse"
       id="clipPath3027">
      <rect
         style="fill:none;stroke:#cccccc"
         id="rect3029"
         width="215.01289"
         height="151.33948"
         x="-545.37592"
         y="123.36324" />
    </clipPath>
    <linearGradient
       inkscape:collect="always"
       xlink:href="#linearGradient3777"
       id="linearGradient4205"
       gradientUnits="userSpaceOnUse"
       x1="325.60721"
       y1="334.74249"
       x2="48.938942"
       y2="42.413769"
       gradientTransform="translate(2.7684055,1.8456037)" />
  </defs>
  <sodipodi:namedview
     inkscape:window-height="1058"
     inkscape:window-width="1858"
     inkscape:pageshadow="2"
     inkscape:pageopacity="0.0"
     guidetolerance="10.0"
     gridtolerance="10.0"
     objecttolerance="10.0"
     borderopacity="1.0"
     bordercolor="#666666"
     pagecolor="#ffffff"
     id="base"
     showgrid="false"
     inkscape:zoom="0.7662607"
     inkscape:cx="23.757642"
     inkscape:cy="37.620796"
     inkscape:window-x="1420"
     inkscape:window-y="-8"
     inkscape:current-layer="layer1"
     showguides="true"
     inkscape:guide-bbox="true"
     borderlayer="true"
     inkscape:window-maximized="1" />
  <g
     inkscape:groupmode="layer"
     id="layer2"
     inkscape:label="Background"
     style="display:inline"
     sodipodi:insensitive="true">
    <rect
       style="fill:url(#linearGradient4205);fill-opacity:1;fill-rule:evenodd"
       id="rect3767"
       width="290.74542"
       height="292.59103"
       x="7.2048888"
       y="6.2820868"
       ry="97.816994" />
  </g>
  <g
     inkscape:groupmode="layer"
     id="layer1"
     inkscape:label="Logo">
    <g
       id="g3005"
       transform="translate(126.58877,145.51184)" />
    <rect
       style="fill:none;stroke:none"
       id="rect3023"
       width="198.36592"
       height="159.21474"
       x="-535.06592"
       y="126.58878" />
    <path
       style="fill:#ffffff;fill-opacity:1;fill-rule:evenodd;stroke:none"
       d=""
       id="path3903"
       inkscape:connector-curvature="0" />
    <path
       style="opacity:0.93103448;fill:#ffffff;fill-opacity:1;fill-rule:evenodd;stroke:none"
       d="m 182.71476,198.11019 c 27.08791,-2.24439 44.49716,5.0772 61.82773,10.15081 l 25.83845,48.9085 c -25.75924,43.44249 -126.5936,20.11514 -123.65545,-4.61401 z"
       id="rect3989"
       inkscape:connector-curvature="0"
       sodipodi:nodetypes="ccccc" />
    <g
       id="g3949"
       transform="matrix(-1.3150322,-0.32591365,0.32591365,-1.3150322,-86.852007,387.41756)">
      <path
         style="fill:#ffffff;fill-opacity:1;fill-rule:evenodd;stroke:none"
         d="m -164.83,274.04738 c 3.45494,-3.31718 3.37015,-6.39487 5.93199,-8.51307 5.27713,-4.36329 6.74377,-5.57414 7.84335,-5.04667 1.11197,0.53341 2.31997,3.89156 0.77309,8.19022 -1.4255,3.96136 -4.05076,8.03072 -2.03069,14.39249 -0.10485,5.07244 -0.64869,10.14489 -3.76216,15.21733 -4.2639,-0.88132 -21.773,-2.87799 -20.33622,-9.18493 0.64338,-3.73386 2.77191,-7.46771 6.02421,-11.20157 z"
         id="path3947"
         inkscape:connector-curvature="0"
         sodipodi:nodetypes="csssccccc" />
      <path
         sodipodi:nodetypes="cssscccc"
         inkscape:connector-curvature="0"
         id="rect3944"
         d="m -77.116771,282.19839 c -1.937894,-4.38005 -1.82215,-8.93402 -2.938147,-12.06521 -2.29884,-6.44994 -3.870778,-11.87925 -2.999508,-12.7326 0.88108,-0.86296 4.238502,2.90191 7.86523,5.68008 3.209327,2.45843 4.38677,5.14759 11.524354,9.47202 l 13.017738,8.73269 -17.040778,16.66031 z"
         style="fill:#ffffff;fill-opacity:1;fill-rule:evenodd;stroke:none" />
      <path
         sodipodi:nodetypes="ccccc"
         inkscape:connector-curvature="0"
         id="rect3941"
         d="m -134.74527,235.23327 40.619335,0 -0.16313,30.17902 c -15.452415,9.73941 -44.817235,6.16717 -40.619335,-0.15801 z"
         style="fill:#ffffff;fill-opacity:1;fill-rule:evenodd;stroke:none" />
      <path
         style="fill:#ffff00;fill-opacity:1;fill-rule:evenodd;stroke:none"
         d="m 117.6875,76.125 c -1.0147,-0.08335 -2.58398,0.377399 -5.125,1.3125 -2.41105,0.887269 -4.65938,1.347583 -4.96875,1.03125 -0.5319,-0.543853 -6.13771,4.37595 -7.65625,6.5 -0.0056,0.0079 0.0055,0.02344 0,0.03125 -5.986098,3.043487 -13.907749,7.733066 -14.0625,7.6875 -1.546158,-0.456824 -29.419763,25.02721 -40.375,36.90625 -3.762089,4.07933 -5.419467,5.90054 -5.96875,7.09375 -0.0057,0.0123 -0.02583,0.0191 -0.03125,0.0312 -2.966039,2.63582 -5.910978,5.48231 -6.1875,5.8125 -1.248985,-0.3308 -8.163553,4.14247 -8.5,5.5 -0.12079,0.48738 11.38055,10.67528 12.3125,10.90625 0.830929,0.20594 2.467356,-8.88917 4.1875,-10.4375 11.599408,-10.44084 15.196575,-15.16913 14.90625,-17.03125 8.952377,-6.86424 23.614969,-16.13639 33.0625,-20.78125 7.118096,-3.4996 8.611194,-4.58001 8.03125,-5.78125 -0.3905,-0.80882 15.71382,-5.961366 -1.90625,-1.3125 -0.199755,0.0248 4.7124,-1.79802 10.59375,-3.9375 1.70521,2.16357 3.0716,3.38716 4.03125,3.625 1.23161,0.30524 2.51174,1.50049 3.03125,2.8125 0.88332,2.23076 1.59155,-0.38636 3.21875,-1.71875 1.03688,-2.76584 5.13169,-7.174641 5.01587,-9.294976 -0.16837,-3.082402 -4.48352,-3.768549 -0.51587,-7.830024 2.55356,-2.602081 2.57905,-2.676403 0.8125,-2.5625 -1.45019,0.09351 -1.7976,-0.41258 -1.78125,-2.4375 0.0113,-1.40322 -0.15642,-3.319192 -0.375,-4.25 -0.27388,-1.16632 -0.7353,-1.791652 -1.75,-1.875 z"
         transform="matrix(-0.71643211,0.17755839,-0.17755839,-0.71643211,6.5656727,292.97968)"
         id="path3826"
         inkscape:connector-curvature="0"
         sodipodi:nodetypes="sscsccscccssscscccsscscscss" />
      <path
         sodipodi:nodetypes="csssscc"
         inkscape:connector-curvature="0"
         id="path3939"
         d="m -94.246421,231.06839 c 2.125919,-0.53357 10.868444,5.44737 16.9443,11.59195 3.162585,3.19835 3.575858,3.81334 3.575858,5.32119 0,0.94633 -0.30542,1.95837 -0.68644,2.27459 -0.75416,0.6259 -1.534823,-0.0637 -5.927909,-5.23614 -2.386771,-2.81021 -8.513488,-7.17385 -9.86734,-7.99134 -0.755049,-0.99984 -29.159698,1.13107 -4.038469,-5.96025 z"
         style="fill:#ffffff;fill-opacity:1;fill-rule:evenodd;stroke:none" />
      <path
         style="fill:#ffff00;fill-opacity:1;fill-rule:evenodd;stroke:none"
         d="M 209.40625 113.375 C 207.55893 113.26103 205.73467 114.47585 203.8125 117 C 203.06987 117.97519 197.97038 121.56664 192.46875 124.96875 C 181.0902 132.00507 181.40523 131.20628 186.1875 140.8125 C 189.44258 147.35101 191.77903 158.64265 191.375 165.75 C 191.18027 169.17534 189.79926 175.36414 187.59375 182.78125 L 184.125 194.46875 L 184.3125 194.65625 C 181.1568 198.2334 179.51185 202.43289 178.9375 202.75 C 177.73283 203.4151 177.78922 203.81602 179.25 205.1875 C 180.59464 206.44993 187.03485 208.34227 207.15625 213.34375 C 228.96783 218.76532 234.57414 219.87661 240.71875 220.0625 C 251.95624 220.40246 257.34527 219.19488 254.3125 217 C 253.0758 216.10497 250.4238 210.30362 246.71875 206.25 C 246.39942 205.35556 245.87374 204.24331 245.25 202.78125 C 240.54675 191.75659 233.79568 171.99763 227.875 152 C 221.8126 131.52363 217.1885 119.6587 213.84375 116.03125 C 212.30371 114.36105 210.84306 113.46364 209.40625 113.375 z "
         transform="matrix(-0.71643211,0.17755839,-0.17755839,-0.71643211,6.5656727,292.97968)"
         id="path3054" />
      <path
         sodipodi:nodetypes="cccccccccccccccccccccccccsccccccccccccccccccccccccccccccccccccccccccccccccccccccccccccccccccccccccccccccccccccccccccccccccccccccccccccccccccccccccccccccccccccccccccccccccccccccccccccccccccccccccccccccccccccccccccccccccccccccccccccccccccccccccccccccccccccccccccccccccccccccccccccccccccccccccccccccccccccccccccccccccccccccccccccccccccccccccccccccccccc"
         inkscape:connector-curvature="0"
         id="path3031"
         d="m -160.44116,299.80082 c -4.43725,-2.70085 -13.68508,-3.66637 -17.45764,-6.94695 0.0526,-7.48646 4.611,-16.61634 11.60905,-19.29509 3.09779,2.35488 13.47382,6.94057 13.4544,5.98171 -1.73775,-2.62561 0.64459,-5.72677 -3.03615,-3.06285 -1.54576,-2.6258 -9.58894,-6.86266 -6.19381,-10.2292 7.40187,-3.63249 -2.5944,-7.68407 -3.17919,-11.48722 -0.67965,-3.72602 -5.48062,-1.7524 -5.87716,-6.47877 -2.87732,0.67826 -6.2448,-8.61074 -4.92256,-3.43413 -3.24381,-2.21754 -4.02776,-11.41477 -8.7488,-5.24522 -1.74843,4.96903 -12.4832,-1.77048 -13.60167,-2.069 -3.27921,-2.31114 -8.1608,-4.82569 -1.43169,-6.26126 4.04743,-1.88194 12.32609,-10.30686 9.35291,-11.41974 -0.51332,1.30841 -1.10926,-3.95206 -3.89062,-4.4734 -1.98131,-2.70068 0.62426,-6.45522 -4.65092,-8.16697 -0.92238,-5.04592 -4.67081,-5.36544 -6.1538,-10.58253 -2.96586,-4.02699 -6.9018,-8.32266 -10.77513,-11.2771 -3.91278,-2.84187 -7.28684,-4.7102 -1.34005,-7.87425 3.43743,0.23519 3.03918,-1.31787 5.68572,-2.09682 5.43801,0.46383 10.59422,-4.14662 17.14825,-1.98849 3.37206,-2.83165 14.82196,-0.65787 20.98622,-1.20227 7.32871,0.57529 9.82675,1.42838 17.66483,1.25128 8.11994,-0.97348 5.10278,9.14234 1.21516,9.23201 -3.09706,8.67734 -2.41939,12.825 -2.62374,18.03109 0.59288,0.95207 1.33229,8.35834 2.29683,9.75341 0.36273,-0.68998 1.76526,-10.79427 4.30234,-15.57564 2.07988,-3.91972 3.67686,-8.00474 9.22212,-11.34941 10.00408,-6.1984 21.96325,-11.64066 33.92648,-8.35917 9.467252,1.77069 17.715332,7.38929 23.670372,14.82691 4.41578,3.69158 6.95107,0.27172 7.52521,-3.4165 5.72875,0.0771 14.88523,3.12924 15.43817,9.07489 -6.11573,0.69873 -6.5121,9.89994 -11.24927,8.47901 -7.99516,-1.61698 0.0632,11.22496 -4.20412,16.01442 -2.1597,9.60255 8.25646,-4.16595 9.77463,-5.52149 3.80177,-6.18945 9.47243,-12.79885 14.34732,-17.41701 3.30145,-5.17248 -2.57502,-14.85855 3.20003,-17.38422 5.15629,-5.61831 8.85088,4.16283 14.15807,3.32101 3.36658,1.33539 7.58013,7.20109 1.5759,11.01221 -3.45238,3.89315 0.91633,-2.54492 -3.1293,2.13002 -6.57207,3.66911 -5.63834,9.10869 -9.79511,13.90784 -2.17072,4.1903 -2.94185,8.9236 -6.53726,12.15631 -1.55124,2.28846 -5.52824,8.98532 -7.78047,11.75685 -5.67275,6.13873 -8.26136,12.78297 -12.90329,20.12992 -3.91162,0.72926 -6.96221,-0.82727 -2.43566,3.28951 4.22401,6.04585 6.39174,12.94218 -2.19596,16.65883 0.40309,3.38467 -1.13361,6.5408 -1.81282,1.31423 -0.23172,-3.82801 -6.52008,-15.97116 -8.68852,-13.09453 -1.941,2.61141 -4.2045,1.06783 -2.35644,5.01328 -3.38395,-2.60995 -7.65922,3.82107 -12.252402,3.9719 -8.05597,1.63523 -16.597,2.39269 -24.61274,0.19807 -3.20921,2.7411 -8.09318,-3.0882 -10.25,-4.3517 -2.35166,3.36126 -0.54906,-5.20184 -4.49936,-1.57844 -4.79842,-3.84219 -6.9648,2.86497 -8.33057,7.04561 0.0367,-3.88366 -1.24998,8.28607 -0.67398,10.95105 0.10742,5.83805 -1.64087,17.86173 -8.96377,16.13797 z m 5.13532,-7.54225 c 3.86303,-4.5226 -1.36778,-14.07554 -5.73102,-10.63432 0.002,0.74668 -4.70674,-6.07808 -5.77433,-0.0212 -1.32958,4.84206 -0.80307,-3.56013 -2.94583,0.97584 2.76564,-11.38023 -9.66108,12.6235 -3.03789,6.24499 2.69661,-5.21831 2.70657,5.68644 5.78616,4.08625 1.4962,1.86891 10.69613,6.92062 11.70291,-0.6516 z m -15.36996,-2.07215 c -2.78671,-4.10992 -1.05336,4.58864 0,0 z m 3.3065,-12.0625 c -1.81256,1.55486 1.12519,3.68384 0,0 z m 11.39583,-8.27083 c 4.59004,0.20106 4.88664,-5.86016 0,-6.214 1.9746,2.80315 2.6763,5.7314 0.0153,3.93262 -2.46234,-1.12267 -5.50352,5.03344 -0.0153,2.28138 z m 44.8,-0.2 c 3.09197,-3.46902 -2.80753,-1.66028 -1.36604,-7.19261 -1.38923,-7.04566 4.62554,0.46113 7.86433,-0.73685 2.66851,3.15798 1.73779,2.39369 1.15635,5.92268 4.944312,-0.51228 -0.0463,-8.18838 0.54378,-11.74531 -1.21647,-2.16624 -6.29403,3.90585 -4.73021,-2.06237 7.37781,2.11792 2.87279,-4.6668 3.58124,-7.61209 3.6056,-0.61647 5.516162,11.40538 6.690582,3.62298 -2.10414,-3.45231 -2.573832,-8.61425 -2.09949,-12.28153 7.7068,-5.32772 14.16996,2.92497 19.40142,7.81449 2.6835,3.26979 6.46438,9.89742 6.88298,1.32733 -5.24289,-6.69024 -12.29658,-12.21389 -19.87608,-16.08865 -4.20197,-0.1893 -6.85188,6.96184 -12.901882,6.24536 -3.54328,0.27079 -14.46421,1.9879 -6.96992,4.30639 0.62504,4.91265 0.99042,-5.33718 5.48474,-0.92412 0.66297,5.65423 2.94055,-3.8975 4.34783,1.35432 -1.37661,5.07474 -8.2183,-0.0524 -7.77922,2 -1.36673,4.56468 -7.5416,-1.69196 -11.74288,-0.19062 -3.1147,-0.70177 -12.92672,-4.72303 -7.825,1.36911 4.71512,0.30623 4.5949,3.86473 2.71644,6.25278 3.90489,-0.65763 9.98408,3.50918 2.48197,3.54978 -1.09688,-3.58045 -5.97376,3.14043 -6.4431,-2.53423 -2.35589,4.57024 -3.8692,11.2382 -0.8071,16.28064 2.31403,-1.08177 4.28801,-2.54253 7.04727,0.86576 4.09087,-2.44828 10.65197,2.3892 14.34199,0.45676 z m -8.61184,-4.53852 c 3.80993,-7.91175 5.87372,6.70958 0,0 z m -12.18816,-1.3348 c 3.92198,-7.31855 4.87333,7.92293 0,0 z m 5.33333,0.57332 c 5.48463,-6.02528 6.24251,5.80386 0,0 z m -5.5579,-4.0579 c -3.09721,-8.05736 16.99072,-0.9508 6.86222,0.54333 -2.27371,-0.0413 -4.67597,0.17941 -6.86222,-0.54333 z m 7.47457,-1.10438 c -3.96764,-0.84658 -3.35327,1.57428 0,0 z m 4.75,0.16228 c 0.73501,-2.85065 8.02803,-1.09212 2,0.1959 6.47103,1.40737 -1.67599,2.26879 -2,-0.1959 z m 7.74167,-1.62469 c -0.6489,-5.77243 -6.89856,-0.50707 -8.23603,-3.829 2.57489,-5.59167 8.94669,-0.28748 11.10314,2.41341 0.21155,1.79553 -1.57027,2.68076 -2.86711,1.41559 z m -3.24167,-4.87531 c -2.95861,-3.38666 -0.43585,3.47181 0,0 z m 2.16667,-1.66667 c -2.11565,-9.40658 9.003,2.14265 0,0 z m 4.66269,-0.91741 c -0.50687,-7.39267 7.43418,0.98125 0.86149,0.94526 l -0.50812,-0.36811 z m -11.40831,-2.1973 c 0.13469,-0.33591 -7.91973,1.84571 -3.79487,-2.645 4.88837,-2.57374 11.44724,5.06856 3.79487,2.645 z m 43.744972,20.53138 c 3.69915,-4.97696 -7.44835,-13.62332 -6.16598,-8.7651 2.39493,0.52318 -1.33915,1.83609 0.87143,3.54326 5.42504,-0.33065 1.13637,9.25122 5.29455,5.22184 z m -30.666022,-1.75 c -1.63934,-4.39198 -6.08352,-3.28559 -2,0.5 -0.0447,2.38491 2.53024,1.44666 2,-0.5 z m 1.60417,-1.72917 c -1.81256,1.55486 1.12519,3.68384 0,0 z m 6.000002,-2 c -1.812562,1.55486 1.12519,3.68384 0,0 z m 3.81075,-1.99876 c -2.33124,-1.80832 2.7607,-7.16535 -2.76397,-4.40792 -2.564752,3.95064 4.30074,14.73872 2.76397,4.40792 z m -55.748252,2.27192 c -1.97027,-3.8057 -3.72306,-0.54009 -0.044,1.02072 l 0.044,-1.02068 z m 13.33333,-6.10301 c 0.76672,-4.10126 2.0088,-12.55806 2.98986,-13.44098 2.89698,0.17477 -2.28893,-11.59467 -6.14757,-5.40479 -4.62809,3.21948 -8.23165,8.69197 -11.84229,12.84577 -4.80032,7.71728 9.56906,9.96862 14.54121,11.06781 0.4287,-1.65117 0.4319,-3.37408 0.45879,-5.06781 z m 53.539152,-1.44098 c -2.23173,5.205 8.05608,-8.20423 3.99286,-7.65066 -3.51881,-2.26045 -6.0429,-8.77555 -11.86152,-8.29978 -3.36729,-7.70431 -5.91803,4.32482 -2.73507,7.30384 -0.254994,4.72702 -0.05846,1.06036 0.55007,6.92205 0.79918,4.98582 2.51427,7.95092 7.01874,3.3038 l 1.42475,-0.82089 z m -74.372722,-0.60374 c -3.25914,-9.54516 -1.99288,8.3068 0,0 z m 2.91112,-2.84833 c 3.10686,-1.74089 3.07864,-7.04072 0.96151,-4.519 -2.35276,-3.81151 -4.13796,9.93172 -0.96153,4.51897 z m 54.14041,-3.72997 c -2.17559,1.63879 2.385222,6.19421 0,0 z m -58.8945,-1.50584 c 2.04276,-6.65963 9.25283,-9.21414 11.67622,-14.17609 6.50324,-0.83452 -5.90763,-10.02143 -6.72894,-14.16984 -5.79511,-9.43337 -5.2999,-20.9857 -3.45926,-31.47914 -3.18064,-7.14698 -15.90437,-2.75922 -22.77414,-3.92806 -9.09471,0.11878 -18.14935,1.18597 -26.93408,3.55446 12.55401,15.6413 22.23331,33.24037 32.33186,50.49041 2.94681,3.73659 10.9945,17.84827 15.88834,9.70826 z m 30.67654,2.68788 c 1.96677,-1.69639 -5.08887,-6.77944 -3.39753,-0.65409 0.27339,2.17291 2.21483,1.705 3.39753,0.65409 z m -29.39583,-2.72917 c -1.81256,1.55486 1.12519,3.68384 0,0 z m 12.385,-6.29921 c 4.621,-4.6452 12.18912,-10.74244 17.22487,-2.98821 3.38448,1.06341 5.90187,2.98171 2.29304,3.02804 4.73975,3.69911 4.57103,-7.65814 -1.17458,-6.01803 -4.20858,-0.92365 -6.55681,-8.73937 -8.64681,-3.09804 -4.24605,-0.60477 -8.98545,3.67878 -10.68569,6.72125 -0.86267,3.01627 -8.51969,2.56256 -4.09859,8.46242 0.75099,3.33868 3.06668,-6.28021 5.08776,-6.10743 z m 29.19833,1.34527 c -4.7161,-0.60616 0.98724,1.65891 0,0 z m 51.773852,-6.26475 c 7.59464,-11.1193 15.13173,-22.42684 21.03865,-34.5368 -6.05196,-7.74277 -9.92002,6.36203 -14.45193,9.64331 -6.60729,8.16664 -14.08377,15.56031 -22.4289,21.93397 -2.64407,2.1834 2.19715,4.50757 2.29727,2.51369 1.2627,3.38524 5.44159,6.34586 8.62761,6.84546 1.70438,-2.08187 3.30752,-4.24457 4.9173,-6.39963 z m -52.961352,2.88884 c -2.45823,-6.40555 -2.31426,7.6386 0,0 z m 1.60417,-0.67015 c -1.81256,1.55486 1.12519,3.68384 0,0 z m -5,-1 c -1.81256,1.55486 1.12519,3.68384 0,0 z m -66.60417,1.25485 c -2.98504,-3.43766 -11.69336,-4.27534 -2.93805,-0.80236 0.63068,-0.0463 2.77394,1.92004 2.93805,0.80236 z m -0.45427,-4.92855 c 3.03925,-4.65069 -8.61468,-0.21047 -1.6432,1.29096 l 0.67333,-0.36587 z m 5.95427,0.40287 c -4.34231,-3.69988 -0.51365,3.38337 0,0 z m 74.77734,0.31855 c 1.46261,-1.96584 10.094092,0.0635 5.94037,-3.10198 3.891372,-0.71452 7.798992,-4.82994 9.072402,-7.21519 -5.45475,-4.38532 -15.475712,2.50061 -22.742502,1.68782 -4.39965,1.038 -14.29479,2.2415 -14.04761,3.16514 4.35349,0.0976 3.93587,5.68354 10.00568,5.00295 3.76657,1.1182 7.94611,1.41218 11.77166,0.46126 z m -84.20165,-4.0229 c 5.39905,-4.76678 -2.45816,-0.66234 -3.03473,2.48522 0.96221,0.54194 2.277,-2.1054 3.03473,-2.48522 z m 110.075332,-2.29565 c 5.94817,-11.26475 4.15742,-26.34771 -3.75845,-36.27318 -7.18314,-9.27403 -18.891982,-15.46413 -30.786282,-13.43254 -26.06788,6.12941 -34.29462,21.79059 -33.64266,45.53854 0.52978,1.60063 9.33511,9.41837 4.68686,4.60791 -3.4891,-2.99504 -4.56509,-7.04632 0.35239,-2.05709 2.58527,4.03992 8.39492,4.6406 5.90288,-1.62577 -2.36024,-7.90038 -3.02213,-17.19705 0.77435,-24.73146 7.0135,-11.73562 23.05555,-17.84222 35.49554,-11.08613 8.368142,4.41721 15.689362,12.5824 15.345502,22.58333 2.18114,6.11574 -3.91675,13.58934 -1.85068,17.96282 2.48522,1.95961 5.91625,1.24935 7.48055,-1.48643 z m -41.151022,-3.57531 c 3.69523,-1.34021 18.88154,-1.3162 8.39356,-4.74252 -5.56791,-1.20049 -17.95343,-0.33852 -19.51619,3.64376 6.70139,0.422 -2.98823,3.3891 3.22037,2.39206 2.64795,-0.34025 5.27677,-0.81344 7.90226,-1.2933 z m -9.5,-1.35123 c 3.34547,-1.97197 13.15998,-4.21079 17.93981,-1.38451 -3.88145,-0.24384 -6.62565,-0.6105 -7.37838,1.10527 -4.48749,-1.12667 -4.53447,0.10084 -6.06143,1.12016 -1.52682,-0.0685 -3.05838,-0.32475 -4.5,-0.84092 z m 28,-2.07346 c -1.28529,-3.43491 -7.28922,2.53244 -1.02399,0.70625 z m 6.000002,-1 c -1.341502,-2.61318 -7.118042,0.0983 -1.317282,0.93122 l 0.71685,-0.2328 z m -3.000002,-2.02034 c -3.88765,-1.7844 -6.7803,-5.75759 -6.20313,-7.84955 -6.26796,-3.60297 -14.00255,-8.6673 -19.89858,-6.63418 7.86409,-1.20336 14.91724,-2.48869 22.81517,-3.97767 3.31619,-1.30562 10.468952,0.54356 3.10304,1.1277 -3.22754,-1.48886 -15.51463,3.01074 -8.10888,3.63778 3.22168,-2.58099 20.263742,-1.37699 10.804602,-6.2978 -10.143812,0.44575 -20.119832,2.79084 -30.200112,3.97305 -3.96325,5.24586 14.84063,9.85425 4.62085,5.01888 -9.05198,-4.39351 11.72637,1.76556 6.2112,4.91012 -9.54497,-1.68494 2.6428,8.22538 4.75041,4.77718 -3.26581,-1.51988 -8.88189,-5.30645 -1.70761,-2.3368 5.58002,3.8613 6.49214,6.60384 13.81304,3.65129 z m -26.68448,-0.10799 c 1.4377,-0.63175 8.7757,-0.59507 4.78165,-1.84216 -4.78595,-1.41706 -8.99064,-1.39008 -7.21932,-7.80372 -6.68794,-3.39428 -9.93037,3.50905 -6.37785,8.82126 0.16186,4.09416 6.48294,0.46801 8.81552,0.82462 z m -10.21135,-2.60084 c -1.81256,1.55486 1.12519,3.68384 0,0 z m 40.282442,0.16848 c -9.827692,-3.98193 6.31288,5.67957 0,0 z m 6.9697,-2.88567 c 1.627,-5.288 1.05869,-7.70109 -5.04311,-8.29723 -4.075772,-0.008 -13.124362,0.98947 -4.549832,3.31238 6.621792,-0.95529 3.138662,10.89907 9.706662,7.40559 l -0.0242,-1.08614 -0.0895,-1.3346 3e-5,0 z m -8.329852,-1.36051 c -3.61283,0.27442 -2.52458,3.59223 0,0 z m -6.38566,-3.21509 c -2.63743,-1.64258 -8.74286,-2.7536 -2.60844,-0.0296 2.56025,1.6245 9.03491,2.89071 2.60844,0.0296 z m -17.7658,-8.99335 c 4.62834,0.39033 -1.8639,-3.38853 4.41057,-1.44925 5.06091,-0.0927 19.71104,-1.36692 18.82098,-3.75001 -3.15611,-1.79481 -4.51183,-1.99216 -8.12057,-3.44416 -3.55076,-3.42279 -14.55863,3.42227 -16.93652,1.57867 -2.28028,1.22338 -12.33476,10.39451 -2.9645,7.46116 1.58783,-0.21654 3.18651,-0.37501 4.79004,-0.39641 z m 56.450902,-1.29937 c 4.59157,-2.77574 -1.50756,-3.85039 -3.98484,-5.02907 0.91706,3.0087 -3.94291,2.86268 -1.92728,-0.57461 -3.22123,1.98727 -8.91693,2.56825 -1.80912,3.45806 4.40803,-0.64066 5.90507,6.08848 0.92093,1.85787 -7.56099,-2.30932 2.38479,4.24552 5.05075,1.78878 l 0.85707,-0.63646 z m -2.8259,-0.45589 c 2.86129,-4.40225 3.58905,0.53454 0,0 z m 34.25195,-6.29164 c -3.91439,-2.27505 -8.14972,-3.92611 -12.25195,-5.82714 -0.0555,4.33563 -0.7179,9.9063 4.40652,11.59851 3.21247,3.19114 5.84747,-3.56994 7.87893,-5.26222 z m -29.25195,2.13976 c -2.50256,-3.59168 -13.66015,-3.09989 -4.12852,-1.14148 0.89579,-0.18757 4.1625,3.43121 4.12852,1.14148 z M -207.51334,182.86825 c 16.11604,-4.78197 33.19984,-2.88187 49.72397,-2.23914 5.59424,-4.99301 -11.01624,-3.88386 -14.88172,-4.22192 -14.11151,0.29533 -29.01294,-1.56661 -42.29684,4.24318 -2.00052,3.06752 5.7506,3.73367 7.45459,2.21788 z m 135.875752,112.4958 c -2.91239,-5.04955 -10.97054,-12.09746 -5.81804,-17.00723 4.58153,-3.18206 10.99582,-12.1455 15.85921,-8.43438 2.08789,2.80447 7.64882,6.71953 9.51569,8.43065 -1.47279,-3.27561 4.78856,1.62034 1.24987,4.44786 -2.5454,5.98316 -7.1211,9.40145 -12.48954,11.66986 -3.44248,2.52094 -2.90571,6.72294 -7.2189,1.97397 z m 2.32724,-5.19553 c -1.07794,-2.71299 -8.45897,-10.09426 -4.26323,-3.53422 0.91801,3.27271 7.64584,11.98338 4.26323,3.53422 z m 3.73387,-0.4821 c 1.48282,-1.36947 5.89143,-1.07951 5.42162,-3.44544 0.41962,-0.80936 1.52324,-3.97153 3.96068,-0.46677 -0.49239,-3.11501 -3.49493,-5.54988 1.36129,-3.5073 1.73878,-2.19869 -9.69914,-2.93471 -3.59348,-5.17653 -5.82122,-9.07345 -10.10264,3.27533 -2.98192,7.20006 0.0522,2.90643 -5.81428,-5.03386 -5.63196,-1.9722 -3.80128,-3.24996 0.5064,-1.06411 -0.65943,-2.49465 -0.0516,-3.8865 -1.49286,-4.73194 -2.08874,-0.0459 -10.01709,-5.60034 7.22396,11.32281 1.40709,8.36567 -1.12818,-3.3913 -7.63212,-8.35827 -2.64178,-2.20697 0.80234,0.98191 4.60911,6.65 5.44663,3.75 z m 0.83151,-3.84711 c -5.32598,-6.18084 6.93547,2.82598 0.91438,0.68289 z m 2.07725,-4.20086 c -4.58568,-6.65183 0.55343,-3.64365 3.8668,-1.25313 1.86638,3.59422 -2.35392,3.76607 -3.8668,1.25313 z m -6.79867,-13.77391 c 1.55729,-1.98599 3.58346,3.09259 0,0 z m -5.00708,-8.01145 c 0.72846,-3.61189 2.55858,3.24062 0,0 z"
         style="fill:#000000" />
      <path
         inkscape:connector-curvature="0"
         id="path3824"
         d="m -144.24581,260.65689 c -4.94571,-1.38543 -9.39383,-4.40668 -9.39383,-6.38047 0,-1.62018 3.13562,-5.77401 8.96284,-11.8733 5.42148,-5.67459 6.6044,-6.08156 8.86051,-3.04836 1.27899,1.71952 1.28424,1.86261 0.19161,5.22015 -0.61789,1.8987 -1.61671,6.60874 -2.2196,10.46676 -0.60289,3.85802 -1.24692,6.99188 -1.43118,6.96414 -0.18426,-0.0277 -2.42091,-0.63476 -4.97035,-1.34892 z"
         style="fill:#ffff00;fill-opacity:1;fill-rule:evenodd;stroke:none" />
      <path
         inkscape:connector-curvature="0"
         id="path3832"
         d="m -89.203348,229.37801 c -1.47894,-0.8614 -1.43983,-2.52034 0.1911,-8.1063 1.08299,-3.70924 1.2522,-5.54466 0.90213,-9.78571 -0.65212,-7.90061 -2.30836,-11.61028 -7.51012,-16.82125 -11.914182,-11.9353 -27.889632,-11.87522 -39.778612,0.14961 -3.4405,3.4798 -4.51064,5.07685 -5.50265,8.21197 -1.53799,4.86065 -1.54755,12.56518 -0.0241,19.4129 1.60688,7.22263 0.28292,8.25992 -4.69091,3.67521 -1.85492,-1.70981 -3.25897,-2.52149 -3.92174,-2.26716 -0.91742,0.35205 -0.99292,-0.46011 -0.67806,-7.29408 0.73709,-15.99815 6.89057,-26.55234 19.20519,-32.93993 12.25775,-6.35809 21.24308,-6.9457 31.424722,-2.05508 11.88014,5.70647 19.69463,18.23157 19.67369,31.53307 -0.018,11.43735 -4.40694,19.13126 -9.29066,16.28675 z"
         style="fill:#ffff00;fill-opacity:1;fill-rule:evenodd;stroke:none" />
      <path
         sodipodi:nodetypes="ccccc"
         inkscape:connector-curvature="0"
         id="rect3836"
         d="m -162.89938,268.41057 11.13553,4.10737 -1.80474,10.45223 -13.74562,-7.53308 z"
         style="fill:#000000;fill-opacity:1;fill-rule:evenodd;stroke:none" />
      <path
         sodipodi:nodetypes="ccccc"
         inkscape:connector-curvature="0"
         id="rect3836-1"
         d="m -80.213008,272.53034 8.22943,-7.41059 7.31139,4.39128 -14.40836,11.52638 z"
         style="fill:#000000;fill-opacity:1;fill-rule:evenodd;stroke:none" />
      <path
         sodipodi:nodetypes="ccccccccccccc"
         inkscape:connector-curvature="0"
         d="m -158.87608,280.43019 c -0.67138,0.87796 -1.27088,1.80006 -1.82071,2.75796 -0.55354,0.95007 -0.92835,1.96963 -1.22361,3.0231 -0.35246,1.13025 -0.40662,2.31658 -0.45144,3.49078 -0.0802,1.3487 -0.49598,2.62795 -0.9504,3.88871 -0.27743,0.72685 -0.56565,1.44931 -0.86991,2.16514 -0.0593,0.1217 -0.11857,0.24341 -0.17785,0.36511 -3.22123,1.22353 -1.8384,0.69033 -3.30693,-0.51276 0.51047,-1.19948 0.91639,-2.45178 1.04366,-3.7544 0.0415,-1.19702 0.0377,-2.42046 0.37001,-3.58056 0.31687,-1.0787 0.62452,-2.15281 1.19878,-3.1339 0.52553,-0.95978 1.07909,-1.90016 1.74998,-2.76722 z"
         id="path3859"
         style="fill:#000000;fill-opacity:1;fill-rule:evenodd;stroke:none" />
      <path
         inkscape:connector-curvature="0"
         d="m -161.4177,295.63586 c 0.37177,-1.28142 0.51459,-2.61455 0.78084,-3.91984 0.31604,-1.90812 0.96719,-3.7238 1.64616,-5.52618 0.47732,-1.21173 0.85778,-2.45662 1.256,-3.69512 0.28947,-0.65575 0.5411,-1.31213 0.68553,-2.01479 0,0 4.32715,-2.10808 4.32715,-2.10808 l 0,0 c -0.11572,0.73279 -0.28535,1.43086 -0.65017,2.0864 -0.48936,1.22727 -0.79425,2.52902 -1.33169,3.74107 -0.68872,1.77403 -1.3659,3.56256 -1.66522,5.45132 -0.27475,1.294 -0.39448,2.61359 -0.67287,3.90696 0,0 -4.37573,2.07826 -4.37573,2.07826 z"
         id="path3861"
         style="fill:#000000;fill-opacity:1;fill-rule:evenodd;stroke:none" />
      <path
         inkscape:connector-curvature="0"
         d="m -172.43315,289.38326 c 0.83499,-0.96029 1.49214,-2.05545 2.26452,-3.06539 0.70574,-0.96002 1.41651,-1.91592 2.10963,-2.88528 0.69852,-0.83353 1.206,-1.77465 1.65264,-2.75923 0.38945,-0.89138 0.84155,-1.75403 1.26893,-2.62797 0,0 4.38154,-1.97398 4.38154,-1.97398 l 0,0 c -0.46804,0.8479 -0.87801,1.73369 -1.29541,2.60552 -0.43128,1.01295 -0.88631,1.999 -1.58795,2.85933 -0.72359,0.86071 0.11451,-0.1739 -0.58426,0.82169 -0.49711,0.70826 -1.11341,1.33229 -1.556,2.08272 -0.8004,0.97126 -1.44031,2.05087 -2.19851,3.04972 0,0 -4.45513,1.89287 -4.45513,1.89287 z"
         id="path3863"
         style="fill:#000000;fill-opacity:1;fill-rule:evenodd;stroke:none" />
      <path
         inkscape:connector-curvature="0"
         d="m -163.72681,298.276 c 0.18723,-0.91019 0.44853,-1.80053 0.8644,-2.63218 0.35451,-0.77262 0.9339,-1.38319 1.45091,-2.0409 0.37406,-0.48896 0.71495,-1.00419 0.96548,-1.56741 0.1594,-0.50167 0.32052,-1.00251 0.50333,-1.49618 0,0 4.40456,-1.99733 4.40456,-1.99733 l 0,0 c -0.27628,0.42606 -0.36082,0.97138 -0.52088,1.45242 -0.19262,0.61633 -0.51417,1.18548 -0.92457,1.68554 -0.16019,0.25112 -0.25365,0.42506 -0.46263,0.64168 -0.0875,0.0907 -0.20279,0.15245 -0.28623,0.24685 -0.29014,0.32824 -0.50938,0.74232 -0.74024,1.11081 -0.46297,0.75727 -0.71672,1.5947 -0.90587,2.45832 0,0 -4.34826,2.13838 -4.34826,2.13838 z"
         id="path3865"
         style="fill:#000000;fill-opacity:1;fill-rule:evenodd;stroke:none" />
      <path
         inkscape:connector-curvature="0"
         d="m -173.53845,293.0867 c -0.0165,-1.05295 0.0347,-2.08389 0.2385,-3.11744 0.16161,-0.82596 0.56367,-1.53482 1.07268,-2.19141 0.42886,-0.71743 1.06908,-1.19575 1.72383,-1.6868 0.75606,-0.66231 1.52733,-1.30371 2.3368,-1.89961 0.66302,-0.5219 1.38613,-0.96664 2.01374,-1.53179 0.46043,-0.42432 0.67799,-1.0247 1.06515,-1.50974 0.38354,-0.5199 0.5606,-1.15075 0.79267,-1.74601 0.32487,-0.60193 0.43592,-1.25708 0.50542,-1.92818 0.0165,-0.12881 0.0329,-0.25761 0.0494,-0.38642 0,0 4.33665,-2.12277 4.33665,-2.12277 l 0,0 c -0.0234,0.1179 -0.0469,0.2358 -0.0703,0.3537 -0.0412,0.70626 -0.0966,1.42949 -0.42082,2.0714 -0.30712,0.59094 -0.42566,1.2555 -0.75344,1.83835 -0.0614,0.0918 -0.12271,0.18366 -0.18407,0.27549 -0.0696,0.061 -0.15342,0.10896 -0.20892,0.18307 -0.25997,0.34715 -0.34909,0.8138 -0.63206,1.1491 -0.34875,0.29963 -0.1748,0.13784 -0.51913,0.48826 -0.4683,0.40682 -1.04654,0.68253 -1.51656,1.08995 -0.78508,0.61358 -1.6132,1.17403 -2.32687,1.87749 -0.59293,0.52438 -1.36267,0.84754 -1.74846,1.57857 -0.48675,0.62637 -1.00293,1.20851 -1.19346,2.00658 -0.22245,0.99712 -0.34013,1.98351 -0.24279,3.00812 0,0 -4.31791,2.20009 -4.31791,2.20009 z"
         id="path3867"
         style="fill:#000000;fill-opacity:1;fill-rule:evenodd;stroke:none" />
      <path
         inkscape:connector-curvature="0"
         id="path3879"
         d="m -110.31636,218.09778 c -0.76131,-0.39675 -2.42236,-1.50151 -3.69121,-2.45502 -1.26885,-0.9535 -3.01279,-1.9772 -3.87541,-2.27489 -1.88143,-0.64927 -1.8921,-0.64999 -1.8921,-0.12794 0,0.22731 1.08771,1.10974 2.41714,1.96095 2.00518,1.28388 2.24642,1.57208 1.41544,1.691 -1.22284,0.17499 -3.62364,-0.99087 -5.33213,-2.58935 -1.80188,-1.68586 -1.63858,-2.39871 0.54952,-2.39871 2.05074,0 2.5455,-0.47965 2.14416,-2.07871 -0.2032,-0.80958 -1.16712,-1.53018 -3.6193,-2.70566 -3.50926,-1.68221 -5.88005,-2.40382 -5.88005,-1.78974 0,0.20046 0.93927,0.87757 2.08726,1.50469 1.148,0.62711 1.88878,1.20637 1.64619,1.28724 -0.65293,0.21764 -3.32012,-1.22771 -4.7716,-2.58573 -1.31218,-1.22769 -1.70389,-3.22107 -0.6921,-3.52202 1.41332,-0.42037 20.27927,-3.06684 23.1854,-3.25239 l 3.2298,-0.20621 -3.4605,0.72566 c -1.90328,0.39912 -7.30167,1.39317 -11.99643,2.209 -8.53453,1.48308 -8.53545,1.48337 -5.65927,1.78817 4.60789,0.48832 15.81009,6.04763 15.81009,7.84608 0,1.39715 1.79041,3.96365 3.76078,5.39098 l 1.78537,1.29332 -1.45772,0.50817 c -2.03068,0.7079 -4.07556,0.62942 -5.70333,-0.21889 z"
         style="fill:#ffffff;fill-opacity:1;fill-rule:evenodd;stroke:none" />
      <path
         inkscape:connector-curvature="0"
         id="path3881"
         d="m -120.00228,221.26171 c 0.34666,-0.0526 0.96955,-0.0537 1.3842,-0.002 0.41465,0.0513 0.13102,0.0944 -0.63029,0.0957 -0.76131,0.001 -1.10057,-0.0407 -0.75391,-0.0934 z"
         style="fill:#ffffff;fill-opacity:1;fill-rule:evenodd;stroke:none" />
      <path
         inkscape:connector-curvature="0"
         id="path3883"
         d="m -133.22345,224.9819 c 0.39039,-0.32849 0.7098,-0.7401 0.7098,-0.91468 0,-0.39895 -0.72039,-0.79506 -1.44594,-0.79506 -1.90772,0 -0.0713,-1.7305 2.93359,-2.76432 5.81423,-2.00038 15.90143,-1.69347 18.5255,0.56365 l 0.61164,0.52611 -0.72862,0.37678 c -0.40073,0.20723 -1.69327,0.53239 -2.8723,0.72258 -1.17903,0.19019 -3.38947,0.55964 -4.9121,0.821 -1.52262,0.26136 -4.8447,0.83194 -7.38241,1.26795 -2.5377,0.43601 -4.95937,0.79286 -5.38149,0.793 l -0.76747,2.5e-4 0.7098,-0.59726 z m 5.22413,-1.8251 c 0.89444,-0.68274 1.24239,-0.80745 2.25285,-0.80745 0.65727,0 1.54838,0.10134 1.98025,0.2252 0.68842,0.19744 0.85427,0.15614 1.34538,-0.33497 0.7193,-0.7193 2.05603,-0.91907 4.84028,-0.72335 2.36396,0.16617 2.62711,-0.0445 0.8095,-0.6481 -3.04128,-1.00995 -7.45264,-0.93072 -11.96902,0.21496 -2.0404,0.51758 -4.69637,1.54763 -4.69637,1.82136 0,0.1758 1.78987,0.65721 3.11446,0.83768 0.63442,0.0864 1.17855,0.17178 1.20918,0.18964 0.0306,0.0179 0.53169,-0.33087 1.11349,-0.77497 z"
         style="fill:#ffffff;fill-opacity:1;fill-rule:evenodd;stroke:none" />
      <path
         inkscape:connector-curvature="0"
         id="path3885"
         d="m -112.56858,203.5681 c -0.4296,-0.31413 -0.43054,-0.34092 -0.0276,-0.78612 1.00541,-1.11096 5.31059,-2.36928 7.99301,-2.33619 2.88734,0.0356 3.77671,-0.0168 4.56065,-0.269 1.474416,-0.47425 0.618119,-1.0887 -1.79968,-1.2914 -0.88173,-0.0739 -1.60315,-0.20213 -1.60315,-0.2849 0,-0.0828 -0.70075,-0.12471 -1.55723,-0.0932 -2.35591,0.0867 -1.22996,-0.11214 2.01077,-0.35512 3.18311,-0.23866 3.806029,-0.0872 5.143968,1.25074 0.742887,0.74289 0.760237,0.84339 0.227677,1.31872 -0.55485,0.49523 -1.830622,0.80639 -6.422425,1.56639 -2.16832,0.35889 -4.57875,0.8669 -5.35651,1.12891 -1.65732,0.55831 -2.55414,0.60108 -3.16944,0.15116 l 0,0 z"
         style="fill:#ffffff;fill-opacity:1;fill-rule:evenodd;stroke:none" />
      <path
         inkscape:connector-curvature="0"
         id="path3887"
         d="m -106.09845,209.07431 c -1.26041,-0.34371 -5.98921,-2.61383 -5.81262,-2.79042 0.25759,-0.2576 3.17215,0.72641 5.27056,1.77944 2.85341,1.43191 2.98489,1.67714 0.54206,1.01098 z"
         style="fill:#ffffff;fill-opacity:1;fill-rule:evenodd;stroke:none" />
      <path
         inkscape:connector-curvature="0"
         id="path3889"
         d="m -98.946732,216.547 c -1.410498,-0.72733 -3.144458,-1.85766 -3.028148,-1.97397 0.31022,-0.31022 2.745022,0.78495 3.528163,1.58696 0.967823,0.99114 0.84936,1.08283 -0.500015,0.38701 z"
         style="fill:#ffffff;fill-opacity:1;fill-rule:evenodd;stroke:none" />
      <path
         inkscape:connector-curvature="0"
         id="path3891"
         d="m -101.83049,220.46364 c -1.75047,-0.48651 -1.76762,-1.27468 -0.0328,-1.50737 0.90094,-0.12084 2.115279,0.34228 2.105573,0.80302 -0.01476,0.7009 -0.946273,1.01744 -2.072773,0.70435 z"
         style="fill:#ffffff;fill-opacity:1;fill-rule:evenodd;stroke:none" />
      <path
         inkscape:connector-curvature="0"
         id="path3893"
         d="m -108.92453,221.73464 c -0.1586,-0.0637 -0.28837,-0.19685 -0.28837,-0.29585 0,-0.39262 1.19982,-1.34803 1.85824,-1.47972 0.74446,-0.14889 1.60226,0.23101 1.60226,0.7096 0,0.55837 -2.41526,1.37001 -3.17213,1.06597 z"
         style="fill:#ffffff;fill-opacity:1;fill-rule:evenodd;stroke:none" />
      <path
         inkscape:connector-curvature="0"
         id="path3897"
         d="m -102.62499,212.58823 c -0.30204,-0.24458 0.0943,-0.84152 0.76795,-1.15679 0.35686,-0.16699 1.15028,-0.37382 1.27481,-0.33231 0.0635,0.0212 -0.42238,0.62665 -0.7903,0.98474 -0.49268,0.47951 -1.0206,0.6921 -1.25246,0.50436 z"
         style="fill:#ffffff;fill-opacity:1;fill-rule:evenodd;stroke:none" />
      <path
         inkscape:connector-curvature="0"
         id="path3899"
         d="m -70.425601,196.53056 c 0.612949,-0.93548 1.72356,-1.41877 1.72356,-0.75002 0,0.44079 -0.694291,1.00971 -1.467855,1.20282 l -0.660404,0.16485 0.404699,-0.61765 z"
         style="fill:#ffffff;fill-opacity:1;fill-rule:evenodd;stroke:none" />
      <path
         inkscape:connector-curvature="0"
         id="path3901"
         d="m -74.126514,198.97718 c -1.234569,-0.42691 -3.22623,-1.51784 -3.459186,-1.89477 -0.402279,-0.6509 2.359244,0.11009 3.683179,1.01497 1.688272,1.15389 2.741378,0.42809 1.739207,-1.19867 -0.588568,-0.95538 -2.0551,-1.64152 -3.575091,-1.67266 -1.342153,-0.0275 -3.229806,-0.47343 -3.229806,-0.763 0,-0.16387 1.258047,-0.7711 4.467822,-2.15652 0.25286,-0.10914 0.264269,-0.0409 0.05768,0.34516 -0.373163,0.69727 -0.318645,1.14255 0.203862,1.66505 0.850584,0.85059 1.997099,0.4176 2.268976,-0.85689 l 0.153379,-0.71899 1.945121,0.77414 c 3.673262,1.46192 3.924204,1.9841 1.833332,3.81494 -0.788136,0.69012 -1.70117,1.43576 -2.028963,1.65697 -0.76937,0.51921 -2.542136,0.51496 -4.059507,-0.01 l 0,0 z m 4.6022,-1.98632 c 1.141345,-0.47688 1.411435,-1.75131 0.371156,-1.75131 -0.422865,0 -1.855888,1.43128 -1.855888,1.85363 0,0.31585 0.579491,0.27591 1.484732,-0.10232 z"
         style="fill:#ffffff;fill-opacity:1;fill-rule:evenodd;stroke:none" />
      <path
         inkscape:connector-curvature="0"
         id="path3905"
         d="m -67.092609,193.31512 c -0.314204,-0.16357 -0.986541,-0.56945 -1.494082,-0.90195 -0.507541,-0.3325 -1.709423,-0.80363 -2.670849,-1.04696 -0.961426,-0.24332 -1.94767,-0.55827 -2.191654,-0.69988 -0.376917,-0.21876 -0.294381,-0.25852 0.549003,-0.26448 2.997503,-0.0212 7.540768,2.04876 6.587991,3.00154 -0.125039,0.12504 -0.438839,0.0895 -0.780409,-0.0883 z"
         style="fill:#ffffff;fill-opacity:1;fill-rule:evenodd;stroke:none" />
      <path
         inkscape:connector-curvature="0"
         id="path3907"
         d="m -191.28997,234.6591 c -1.37562,-0.33823 -2.09146,-0.84775 -1.99822,-1.4223 0.13531,-0.83382 1.90206,-1.7999 3.29162,-1.7999 0.56887,0 0.81903,0.10993 0.97858,0.43 0.095,0.19048 0.10063,0.25593 0.0436,0.50286 -0.13627,0.59033 -0.33803,0.9137 -0.91865,1.47232 -0.66371,0.63857 -1.09554,0.89113 -1.39696,0.81702 z"
         style="fill:#ffffff;fill-opacity:1;fill-rule:evenodd;stroke:none" />
      <path
         inkscape:connector-curvature="0"
         id="path3909"
         d="m -195.87202,232.48948 c 0.0618,-0.2868 0.44543,-0.99896 0.78003,-1.44787 0.72917,-0.97829 2.22998,-2.24389 3.31851,-2.79844 0.42374,-0.21587 0.71422,-0.26922 0.71422,-0.13119 0,0.16411 -0.59261,0.84919 -1.24847,1.4433 -1.06097,0.96108 -1.14745,1.04853 -1.64702,1.6654 -0.53936,0.66602 -1.0151,1.15631 -1.2769,1.31595 -0.1044,0.0636 -0.28713,0.11111 -0.4283,0.11124 -0.23847,2.1e-4 -0.24515,-0.005 -0.21207,-0.15839 z"
         style="fill:#ffffff;fill-opacity:1;fill-rule:evenodd;stroke:none" />
      <path
         inkscape:connector-curvature="0"
         id="path3911"
         d="m -189.79667,238.56817 c -0.17791,-0.0732 -0.52828,-0.25089 -0.77861,-0.3949 -0.61791,-0.35547 -1.15591,-0.6228 -1.25338,-0.6228 -0.10558,0 -1.5171,-0.59608 -2.28886,-0.96658 -0.33389,-0.16028 -0.80478,-0.42366 -1.04643,-0.58529 -0.5621,-0.37595 -0.63644,-0.53074 -0.28834,-0.60036 0.36141,-0.0723 1.46991,0.16075 2.46091,0.51734 1.45784,0.52457 2.82651,1.32754 3.70259,2.17223 0.26274,0.25332 0.29195,0.30388 0.23649,0.40933 -0.13073,0.24856 -0.27852,0.26266 -0.74437,0.071 z"
         style="fill:#ffffff;fill-opacity:1;fill-rule:evenodd;stroke:none" />
      <path
         inkscape:connector-curvature="0"
         id="path3913"
         d="m -184.35551,234.69566 c -0.47085,-0.20461 -1.10927,-1.14424 -1.10927,-1.63262 0,-0.29265 0.11646,-0.34351 0.46975,-0.20517 0.3867,0.15141 1.49121,0.93792 1.49121,1.06187 0,0.0278 -0.0539,0.19463 -0.11981,0.37074 -0.0853,0.22802 -0.1675,0.34487 -0.28551,0.40589 -0.19912,0.10297 -0.20784,0.10295 -0.44637,-7.1e-4 l 0,0 z"
         style="fill:#ffffff;fill-opacity:1;fill-rule:evenodd;stroke:none" />
      <path
         inkscape:connector-curvature="0"
         id="path3915"
         d="m -152.05793,246.98574 c -0.15724,-0.30135 -0.47614,-0.89335 -0.70868,-1.31555 -0.23253,-0.4222 -0.47612,-1.05614 -0.5413,-1.40875 -0.10436,-0.56451 -0.0884,-0.71114 0.1336,-1.22717 0.32047,-0.74497 0.78336,-1.13624 2.52606,-2.13525 1.73763,-0.9961 2.20404,-1.38737 2.65154,-2.22438 0.71237,-1.33242 2.10734,-3.00022 3.37683,-4.03728 2.4028,-1.96286 4.83588,-3.00853 6.69994,-2.87943 l 0.67388,0.0467 0.2596,-0.58488 c 0.34315,-0.77313 0.8024,-1.30089 1.20989,-1.39039 0.61925,-0.13601 1.14798,0.22234 2.77724,1.88229 1.76296,1.79616 2.32565,2.27432 3.2298,2.74458 0.57998,0.30166 0.73838,0.33004 1.84561,0.33062 1.11853,5.8e-4 1.25325,0.0254 1.76125,0.32397 0.30254,0.17784 0.75211,0.57893 0.99903,0.89131 1.24046,1.56931 1.31385,4.38846 0.1384,5.31656 -0.39375,0.31088 -1.19093,0.24956 -1.81728,-0.13979 -0.42505,-0.26423 -0.43283,-0.27938 -0.1586,-0.30897 0.72887,-0.0786 1.04388,-0.16412 1.20747,-0.32771 0.25108,-0.25108 0.2277,-0.33388 -0.24079,-0.85243 -0.44298,-0.49033 -1.99772,-1.33995 -3.07169,-1.6786 -0.50272,-0.15852 -0.67175,-0.28681 -0.99403,-0.75441 -0.52563,-0.76264 -1.80284,-1.94936 -2.57103,-2.38887 -0.86546,-0.49517 -1.80114,-0.71485 -3.04466,-0.71485 -2.89447,0 -6.12634,1.73452 -9.93047,5.32962 -0.70653,0.66771 -1.48437,1.3119 -1.72854,1.43154 -0.6534,0.32016 -1.19526,1.1221 -2.36827,3.50501 -1.11367,2.26236 -1.62696,3.11445 -1.87611,3.11445 -0.084,0 -0.28145,-0.24656 -0.43869,-0.54791 l 0,0 z"
         style="fill:#ffffff;fill-opacity:1;fill-rule:evenodd;stroke:none" />
      <path
         inkscape:connector-curvature="0"
         id="path3917"
         d="m -157.36301,253.38768 c -0.38709,-0.6777 -0.005,-3.84622 0.61254,-5.07608 0.52106,-1.03815 0.94804,-1.23811 1.50477,-0.70472 l 0.31723,0.30392 0.3612,-0.30392 c 0.74668,-0.62829 1.10497,-0.2709 0.99874,0.99623 -0.10308,1.22947 -0.57932,2.132 -1.72782,3.27438 -0.52033,0.51755 -1.10742,1.12746 -1.30464,1.35536 -0.41734,0.48225 -0.5586,0.51095 -0.76202,0.15483 z"
         style="fill:#ffffff;fill-opacity:1;fill-rule:evenodd;stroke:none" />
      <path
         inkscape:connector-curvature="0"
         id="path3919"
         d="m -160.09097,257.29963 c -0.57899,-0.69765 -0.85382,-3.93439 -0.40184,-4.73266 0.11621,-0.20524 0.1336,-0.20259 0.37912,0.0577 0.32629,0.34589 0.50677,0.69247 0.92157,1.7697 l 0.33289,0.8645 -0.21865,0.72257 c -0.22998,0.76003 -0.60842,1.47235 -0.78224,1.47235 -0.0566,0 -0.16049,-0.0694 -0.23085,-0.15414 z"
         style="fill:#ffffff;fill-opacity:1;fill-rule:evenodd;stroke:none" />
    </g>
    <g
       id="g4390"
       transform="matrix(2.6336276,-0.05605895,-0.2913633,0.8978309,-291.85247,21.295341)">
      <rect
         transform="matrix(0.98833392,0.15230253,-0.21646684,0.97628997,0,0)"
         ry="0"
         y="230.84052"
         x="262.96994"
         height="16.34691"
         width="23.600222"
         id="rect4294"
         style="fill:#ffffff;fill-opacity:1;fill-rule:evenodd;stroke:#000000;stroke-width:0.00900961;stroke-miterlimit:4;stroke-dasharray:none" />
      <path
         inkscape:connector-curvature="0"
         id="path4215"
         d="m 211.5625,267.3125 -2.84375,12.8125 0.5625,0.125 2.84375,-12.8125 -0.5625,-0.125 z"
         style="font-size:medium;font-style:normal;font-variant:normal;font-weight:normal;font-stretch:normal;text-indent:0;text-align:start;text-decoration:none;line-height:normal;letter-spacing:normal;word-spacing:normal;text-transform:none;direction:ltr;block-progression:tb;writing-mode:lr-tb;text-anchor:start;baseline-shift:baseline;color:#000000;fill:#000000;fill-opacity:1;stroke:none;stroke-width:0.58116245;marker:none;visibility:visible;display:inline;overflow:visible;enable-background:accumulate;font-family:Sans;-inkscape-font-specification:Sans" />
      <path
         inkscape:connector-curvature="0"
         id="path4217"
         d="m 212.6875,267.46875 -2.84375,12.8125 1.125,0.25 2.84375,-12.8125 -1.125,-0.25 z"
         style="font-size:medium;font-style:normal;font-variant:normal;font-weight:normal;font-stretch:normal;text-indent:0;text-align:start;text-decoration:none;line-height:normal;letter-spacing:normal;word-spacing:normal;text-transform:none;direction:ltr;block-progression:tb;writing-mode:lr-tb;text-anchor:start;baseline-shift:baseline;color:#000000;fill:#000000;fill-opacity:1;stroke:none;stroke-width:1.1623404;marker:none;visibility:visible;display:inline;overflow:visible;enable-background:accumulate;font-family:Sans;-inkscape-font-specification:Sans" />
      <path
         inkscape:connector-curvature="0"
         id="path4219"
         d="m 215.15625,267.84375 -2.84375,12.8125 1.15625,0.25 2.84375,-12.8125 -1.15625,-0.25 z"
         style="font-size:medium;font-style:normal;font-variant:normal;font-weight:normal;font-stretch:normal;text-indent:0;text-align:start;text-decoration:none;line-height:normal;letter-spacing:normal;word-spacing:normal;text-transform:none;direction:ltr;block-progression:tb;writing-mode:lr-tb;text-anchor:start;baseline-shift:baseline;color:#000000;fill:#000000;fill-opacity:1;stroke:none;stroke-width:1.16232491;marker:none;visibility:visible;display:inline;overflow:visible;enable-background:accumulate;font-family:Sans;-inkscape-font-specification:Sans" />
      <path
         inkscape:connector-curvature="0"
         id="path4221"
         d="m 217.125,268.15625 -2.84375,12.8125 0.5625,0.15625 2.84375,-12.84375 -0.5625,-0.125 z"
         style="font-size:medium;font-style:normal;font-variant:normal;font-weight:normal;font-stretch:normal;text-indent:0;text-align:start;text-decoration:none;line-height:normal;letter-spacing:normal;word-spacing:normal;text-transform:none;direction:ltr;block-progression:tb;writing-mode:lr-tb;text-anchor:start;baseline-shift:baseline;color:#000000;fill:#000000;fill-opacity:1;stroke:none;stroke-width:0.58116245;marker:none;visibility:visible;display:inline;overflow:visible;enable-background:accumulate;font-family:Sans;-inkscape-font-specification:Sans" />
      <path
         inkscape:connector-curvature="0"
         id="path4223"
         d="m 219.03125,268.4375 -2.8125,12.8125 1.125,0.25 2.84375,-12.8125 -1.15625,-0.25 z"
         style="font-size:medium;font-style:normal;font-variant:normal;font-weight:normal;font-stretch:normal;text-indent:0;text-align:start;text-decoration:none;line-height:normal;letter-spacing:normal;word-spacing:normal;text-transform:none;direction:ltr;block-progression:tb;writing-mode:lr-tb;text-anchor:start;baseline-shift:baseline;color:#000000;fill:#000000;fill-opacity:1;stroke:none;stroke-width:1.16232491;marker:none;visibility:visible;display:inline;overflow:visible;enable-background:accumulate;font-family:Sans;-inkscape-font-specification:Sans" />
      <path
         inkscape:connector-curvature="0"
         id="path4235"
         d="m 221.5,268.84375 -2.84375,12.8125 0.59375,0.125 2.84375,-12.8125 -0.59375,-0.125 z"
         style="font-size:medium;font-style:normal;font-variant:normal;font-weight:normal;font-stretch:normal;text-indent:0;text-align:start;text-decoration:none;line-height:normal;letter-spacing:normal;word-spacing:normal;text-transform:none;direction:ltr;block-progression:tb;writing-mode:lr-tb;text-anchor:start;baseline-shift:baseline;color:#000000;fill:#000000;fill-opacity:1;stroke:none;stroke-width:0.58116245;marker:none;visibility:visible;display:inline;overflow:visible;enable-background:accumulate;font-family:Sans;-inkscape-font-specification:Sans" />
      <path
         inkscape:connector-curvature="0"
         id="path4237"
         d="m 223.65625,269.15625 -2.84375,12.8125 1.15625,0.25 2.84375,-12.8125 -1.15625,-0.25 z"
         style="font-size:medium;font-style:normal;font-variant:normal;font-weight:normal;font-stretch:normal;text-indent:0;text-align:start;text-decoration:none;line-height:normal;letter-spacing:normal;word-spacing:normal;text-transform:none;direction:ltr;block-progression:tb;writing-mode:lr-tb;text-anchor:start;baseline-shift:baseline;color:#000000;fill:#000000;fill-opacity:1;stroke:none;stroke-width:1.16232491;marker:none;visibility:visible;display:inline;overflow:visible;enable-background:accumulate;font-family:Sans;-inkscape-font-specification:Sans" />
      <path
         inkscape:connector-curvature="0"
         id="path4239"
         d="m 226.15625,269.53125 -2.84375,12.8125 1.125,0.28125 2.84375,-12.84375 -1.125,-0.25 z"
         style="font-size:medium;font-style:normal;font-variant:normal;font-weight:normal;font-stretch:normal;text-indent:0;text-align:start;text-decoration:none;line-height:normal;letter-spacing:normal;word-spacing:normal;text-transform:none;direction:ltr;block-progression:tb;writing-mode:lr-tb;text-anchor:start;baseline-shift:baseline;color:#000000;fill:#000000;fill-opacity:1;stroke:none;stroke-width:1.16232491;marker:none;visibility:visible;display:inline;overflow:visible;enable-background:accumulate;font-family:Sans;-inkscape-font-specification:Sans" />
      <path
         inkscape:connector-curvature="0"
         id="path4241"
         d="m 228.90625,270 -2.84375,12.8125 0.5625,0.125 2.84375,-12.8125 -0.5625,-0.125 z"
         style="font-size:medium;font-style:normal;font-variant:normal;font-weight:normal;font-stretch:normal;text-indent:0;text-align:start;text-decoration:none;line-height:normal;letter-spacing:normal;word-spacing:normal;text-transform:none;direction:ltr;block-progression:tb;writing-mode:lr-tb;text-anchor:start;baseline-shift:baseline;color:#000000;fill:#000000;fill-opacity:1;stroke:none;stroke-width:0.58116245;marker:none;visibility:visible;display:inline;overflow:visible;enable-background:accumulate;font-family:Sans;-inkscape-font-specification:Sans" />
      <path
         inkscape:connector-curvature="0"
         id="path4296"
         d="m 230.34375,270.21875 -2.84375,12.8125 0.5625,0.125 2.84375,-12.8125 -0.5625,-0.125 z"
         style="font-size:medium;font-style:normal;font-variant:normal;font-weight:normal;font-stretch:normal;text-indent:0;text-align:start;text-decoration:none;line-height:normal;letter-spacing:normal;word-spacing:normal;text-transform:none;direction:ltr;block-progression:tb;writing-mode:lr-tb;text-anchor:start;baseline-shift:baseline;color:#000000;fill:#000000;fill-opacity:1;stroke:none;stroke-width:0.58116245;marker:none;visibility:visible;display:inline;overflow:visible;enable-background:accumulate;font-family:Sans;-inkscape-font-specification:Sans" />
    </g>
  </g>
</svg>
